# xmcd
#
# Track frame offsets: 
#        150
#        25899
#        47080
#        65999
#        91194
#        123517
#        142301
#        161186
#        177860
#        202099
#        222632
#
# Disc length: 3179 seconds
#
# Revision: 1
# Processed by: cddbd v1.5.2PL0 Copyright (c) Steve Scherf et al.
# Submitted via: ExactAudioCopyFreeDBPlugin 1.0
#
DISCID=b30c690b
DTITLE=Blues Menu - na zywo w Bajce
DYEAR=2010
DGENRE=Blues
TTITLE0=01.Ona poszla inna droga
TTITLE1=02.Bracia w bluesie
TTITLE2=03.Boogie na tron
TTITLE3=04.To tak stalo sie nagle
TTITLE4=05.Blues o drgiej w nocy
TTITLE5=06.O narodzinach i smierci bluesa
TTITLE6=07.Zabierz swoje sukienki
TTITLE7=08.Barman barmanko
TTITLE8=09.Dlaczego tak mnie traktujesz
TTITLE9=10.Powiedzmy to
TTITLE10=11.Chinski mur
EXTD=
EXTT0=
EXTT1=
EXTT2=
EXTT3=
EXTT4=
EXTT5=
EXTT6=
EXTT7=
EXTT8=
EXTT9=
EXTT10=
PLAYORDER=
